<mxfile host="192.168.31.177" agent="Mozilla/5.0 (Windows NT 10.0; Win64; x64) AppleWebKit/537.36 (KHTML, like Gecko) Chrome/131.0.0.0 Safari/537.36 Edg/131.0.0.0" version="24.7.17">
  <diagram id="C5RBs43oDa-KdzZeNtuy" name="Page-1">
    <mxGraphModel dx="1514" dy="1988" grid="1" gridSize="10" guides="1" tooltips="1" connect="1" arrows="1" fold="1" page="1" pageScale="1" pageWidth="827" pageHeight="1169" math="0" shadow="0">
      <root>
        <mxCell id="WIyWlLk6GJQsqaUBKTNV-0" />
        <mxCell id="WIyWlLk6GJQsqaUBKTNV-1" parent="WIyWlLk6GJQsqaUBKTNV-0" />
        <mxCell id="zL5gAicnzv482tEoZBxc-23" style="edgeStyle=orthogonalEdgeStyle;rounded=0;orthogonalLoop=1;jettySize=auto;html=1;exitX=1;exitY=0;exitDx=0;exitDy=0;entryX=0;entryY=0.5;entryDx=0;entryDy=0;curved=1;" edge="1" parent="WIyWlLk6GJQsqaUBKTNV-1" source="zL5gAicnzv482tEoZBxc-0" target="zL5gAicnzv482tEoZBxc-1">
          <mxGeometry relative="1" as="geometry" />
        </mxCell>
        <mxCell id="zL5gAicnzv482tEoZBxc-24" style="edgeStyle=orthogonalEdgeStyle;rounded=0;orthogonalLoop=1;jettySize=auto;html=1;exitX=1;exitY=0.5;exitDx=0;exitDy=0;entryX=0;entryY=0.5;entryDx=0;entryDy=0;curved=1;" edge="1" parent="WIyWlLk6GJQsqaUBKTNV-1" source="zL5gAicnzv482tEoZBxc-0" target="zL5gAicnzv482tEoZBxc-3">
          <mxGeometry relative="1" as="geometry" />
        </mxCell>
        <mxCell id="zL5gAicnzv482tEoZBxc-25" style="edgeStyle=orthogonalEdgeStyle;rounded=0;orthogonalLoop=1;jettySize=auto;html=1;exitX=1;exitY=0.75;exitDx=0;exitDy=0;entryX=0;entryY=0.5;entryDx=0;entryDy=0;curved=1;" edge="1" parent="WIyWlLk6GJQsqaUBKTNV-1" source="zL5gAicnzv482tEoZBxc-0" target="zL5gAicnzv482tEoZBxc-5">
          <mxGeometry relative="1" as="geometry" />
        </mxCell>
        <mxCell id="zL5gAicnzv482tEoZBxc-26" style="edgeStyle=orthogonalEdgeStyle;rounded=0;orthogonalLoop=1;jettySize=auto;html=1;exitX=1;exitY=1;exitDx=0;exitDy=0;entryX=0;entryY=0.5;entryDx=0;entryDy=0;curved=1;" edge="1" parent="WIyWlLk6GJQsqaUBKTNV-1" source="zL5gAicnzv482tEoZBxc-0" target="zL5gAicnzv482tEoZBxc-7">
          <mxGeometry relative="1" as="geometry" />
        </mxCell>
        <mxCell id="zL5gAicnzv482tEoZBxc-27" style="edgeStyle=orthogonalEdgeStyle;rounded=0;orthogonalLoop=1;jettySize=auto;html=1;exitX=0.75;exitY=1;exitDx=0;exitDy=0;entryX=0;entryY=0.5;entryDx=0;entryDy=0;curved=1;" edge="1" parent="WIyWlLk6GJQsqaUBKTNV-1" source="zL5gAicnzv482tEoZBxc-0" target="zL5gAicnzv482tEoZBxc-11">
          <mxGeometry relative="1" as="geometry" />
        </mxCell>
        <mxCell id="zL5gAicnzv482tEoZBxc-28" style="edgeStyle=orthogonalEdgeStyle;rounded=0;orthogonalLoop=1;jettySize=auto;html=1;exitX=0.5;exitY=1;exitDx=0;exitDy=0;curved=1;" edge="1" parent="WIyWlLk6GJQsqaUBKTNV-1" source="zL5gAicnzv482tEoZBxc-0" target="zL5gAicnzv482tEoZBxc-13">
          <mxGeometry relative="1" as="geometry" />
        </mxCell>
        <mxCell id="zL5gAicnzv482tEoZBxc-29" style="edgeStyle=orthogonalEdgeStyle;rounded=0;orthogonalLoop=1;jettySize=auto;html=1;exitX=0.25;exitY=1;exitDx=0;exitDy=0;curved=1;" edge="1" parent="WIyWlLk6GJQsqaUBKTNV-1" source="zL5gAicnzv482tEoZBxc-0" target="zL5gAicnzv482tEoZBxc-15">
          <mxGeometry relative="1" as="geometry" />
        </mxCell>
        <mxCell id="zL5gAicnzv482tEoZBxc-30" style="edgeStyle=orthogonalEdgeStyle;rounded=0;orthogonalLoop=1;jettySize=auto;html=1;exitX=0;exitY=1;exitDx=0;exitDy=0;entryX=0.5;entryY=0;entryDx=0;entryDy=0;curved=1;" edge="1" parent="WIyWlLk6GJQsqaUBKTNV-1" source="zL5gAicnzv482tEoZBxc-0" target="zL5gAicnzv482tEoZBxc-17">
          <mxGeometry relative="1" as="geometry" />
        </mxCell>
        <mxCell id="zL5gAicnzv482tEoZBxc-31" style="edgeStyle=orthogonalEdgeStyle;rounded=0;orthogonalLoop=1;jettySize=auto;html=1;exitX=0;exitY=0.75;exitDx=0;exitDy=0;entryX=1;entryY=0.5;entryDx=0;entryDy=0;curved=1;" edge="1" parent="WIyWlLk6GJQsqaUBKTNV-1" source="zL5gAicnzv482tEoZBxc-0" target="zL5gAicnzv482tEoZBxc-18">
          <mxGeometry relative="1" as="geometry" />
        </mxCell>
        <mxCell id="zL5gAicnzv482tEoZBxc-34" style="edgeStyle=orthogonalEdgeStyle;rounded=0;orthogonalLoop=1;jettySize=auto;html=1;exitX=0;exitY=0;exitDx=0;exitDy=0;entryX=1;entryY=0.5;entryDx=0;entryDy=0;curved=1;" edge="1" parent="WIyWlLk6GJQsqaUBKTNV-1" source="zL5gAicnzv482tEoZBxc-0" target="zL5gAicnzv482tEoZBxc-20">
          <mxGeometry relative="1" as="geometry" />
        </mxCell>
        <mxCell id="zL5gAicnzv482tEoZBxc-36" style="edgeStyle=orthogonalEdgeStyle;rounded=0;orthogonalLoop=1;jettySize=auto;html=1;exitX=0.75;exitY=0;exitDx=0;exitDy=0;curved=1;" edge="1" parent="WIyWlLk6GJQsqaUBKTNV-1" source="zL5gAicnzv482tEoZBxc-0" target="zL5gAicnzv482tEoZBxc-21">
          <mxGeometry relative="1" as="geometry" />
        </mxCell>
        <mxCell id="zL5gAicnzv482tEoZBxc-0" value="习概" style="rounded=0;whiteSpace=wrap;html=1;" vertex="1" parent="WIyWlLk6GJQsqaUBKTNV-1">
          <mxGeometry x="350" y="290" width="120" height="60" as="geometry" />
        </mxCell>
        <mxCell id="zL5gAicnzv482tEoZBxc-37" style="edgeStyle=orthogonalEdgeStyle;rounded=0;orthogonalLoop=1;jettySize=auto;html=1;exitX=1;exitY=0;exitDx=0;exitDy=0;curved=1;" edge="1" parent="WIyWlLk6GJQsqaUBKTNV-1" source="zL5gAicnzv482tEoZBxc-1" target="zL5gAicnzv482tEoZBxc-38">
          <mxGeometry relative="1" as="geometry">
            <mxPoint x="800" y="40" as="targetPoint" />
          </mxGeometry>
        </mxCell>
        <mxCell id="zL5gAicnzv482tEoZBxc-39" style="edgeStyle=orthogonalEdgeStyle;rounded=0;orthogonalLoop=1;jettySize=auto;html=1;exitX=1;exitY=0.25;exitDx=0;exitDy=0;curved=1;" edge="1" parent="WIyWlLk6GJQsqaUBKTNV-1" source="zL5gAicnzv482tEoZBxc-1" target="zL5gAicnzv482tEoZBxc-40">
          <mxGeometry relative="1" as="geometry">
            <mxPoint x="800" y="105" as="targetPoint" />
          </mxGeometry>
        </mxCell>
        <mxCell id="zL5gAicnzv482tEoZBxc-41" style="edgeStyle=orthogonalEdgeStyle;rounded=0;orthogonalLoop=1;jettySize=auto;html=1;exitX=1;exitY=0.5;exitDx=0;exitDy=0;curved=1;" edge="1" parent="WIyWlLk6GJQsqaUBKTNV-1" source="zL5gAicnzv482tEoZBxc-1" target="zL5gAicnzv482tEoZBxc-42">
          <mxGeometry relative="1" as="geometry">
            <mxPoint x="840" y="160" as="targetPoint" />
          </mxGeometry>
        </mxCell>
        <mxCell id="zL5gAicnzv482tEoZBxc-43" style="edgeStyle=orthogonalEdgeStyle;rounded=0;orthogonalLoop=1;jettySize=auto;html=1;exitX=1;exitY=1;exitDx=0;exitDy=0;curved=1;" edge="1" parent="WIyWlLk6GJQsqaUBKTNV-1" source="zL5gAicnzv482tEoZBxc-1" target="zL5gAicnzv482tEoZBxc-44">
          <mxGeometry relative="1" as="geometry">
            <mxPoint x="950" y="250" as="targetPoint" />
            <Array as="points">
              <mxPoint x="730" y="170" />
              <mxPoint x="865" y="170" />
              <mxPoint x="865" y="160" />
              <mxPoint x="980" y="160" />
              <mxPoint x="980" y="210" />
            </Array>
          </mxGeometry>
        </mxCell>
        <mxCell id="zL5gAicnzv482tEoZBxc-1" value="导论" style="rounded=0;whiteSpace=wrap;html=1;" vertex="1" parent="WIyWlLk6GJQsqaUBKTNV-1">
          <mxGeometry x="610" y="90" width="120" height="60" as="geometry" />
        </mxCell>
        <mxCell id="zL5gAicnzv482tEoZBxc-3" value="第一章&lt;div&gt;新时代坚持和发展中国特社会主义&lt;/div&gt;" style="rounded=0;whiteSpace=wrap;html=1;" vertex="1" parent="WIyWlLk6GJQsqaUBKTNV-1">
          <mxGeometry x="750" y="210" width="120" height="60" as="geometry" />
        </mxCell>
        <mxCell id="zL5gAicnzv482tEoZBxc-5" value="第二章&lt;div&gt;以中国式现代化全面推进中华民族伟大复兴&lt;/div&gt;" style="rounded=0;whiteSpace=wrap;html=1;" vertex="1" parent="WIyWlLk6GJQsqaUBKTNV-1">
          <mxGeometry x="707" y="310" width="120" height="60" as="geometry" />
        </mxCell>
        <mxCell id="zL5gAicnzv482tEoZBxc-7" value="第三章&lt;div&gt;坚持党的全面领导&lt;/div&gt;" style="rounded=0;whiteSpace=wrap;html=1;" vertex="1" parent="WIyWlLk6GJQsqaUBKTNV-1">
          <mxGeometry x="740" y="380" width="120" height="60" as="geometry" />
        </mxCell>
        <mxCell id="zL5gAicnzv482tEoZBxc-11" value="第四章&lt;div&gt;坚持以人民为中心&lt;/div&gt;" style="rounded=0;whiteSpace=wrap;html=1;" vertex="1" parent="WIyWlLk6GJQsqaUBKTNV-1">
          <mxGeometry x="720" y="480" width="120" height="60" as="geometry" />
        </mxCell>
        <mxCell id="zL5gAicnzv482tEoZBxc-13" value="第五章&lt;div&gt;全面深化改革开放&lt;/div&gt;" style="rounded=0;whiteSpace=wrap;html=1;" vertex="1" parent="WIyWlLk6GJQsqaUBKTNV-1">
          <mxGeometry x="450" y="585" width="120" height="60" as="geometry" />
        </mxCell>
        <mxCell id="zL5gAicnzv482tEoZBxc-15" value="第六章&lt;div&gt;推动高质量发展&lt;/div&gt;" style="rounded=0;whiteSpace=wrap;html=1;" vertex="1" parent="WIyWlLk6GJQsqaUBKTNV-1">
          <mxGeometry x="320" y="600" width="120" height="60" as="geometry" />
        </mxCell>
        <mxCell id="zL5gAicnzv482tEoZBxc-17" value="第七章&lt;div&gt;社会主义现代化建设的教育、科技、人才战略&lt;/div&gt;" style="rounded=0;whiteSpace=wrap;html=1;" vertex="1" parent="WIyWlLk6GJQsqaUBKTNV-1">
          <mxGeometry x="150" y="500" width="120" height="60" as="geometry" />
        </mxCell>
        <mxCell id="zL5gAicnzv482tEoZBxc-18" value="第八章&lt;div&gt;发展全过程人民民主&lt;/div&gt;" style="rounded=0;whiteSpace=wrap;html=1;" vertex="1" parent="WIyWlLk6GJQsqaUBKTNV-1">
          <mxGeometry x="80" y="360" width="120" height="60" as="geometry" />
        </mxCell>
        <mxCell id="zL5gAicnzv482tEoZBxc-19" value="第九章&lt;div&gt;全面依法治国&lt;/div&gt;" style="rounded=0;whiteSpace=wrap;html=1;" vertex="1" parent="WIyWlLk6GJQsqaUBKTNV-1">
          <mxGeometry x="80" y="230" width="120" height="60" as="geometry" />
        </mxCell>
        <mxCell id="zL5gAicnzv482tEoZBxc-20" value="第十章&lt;div&gt;建设社会主义文化强国&lt;/div&gt;" style="rounded=0;whiteSpace=wrap;html=1;" vertex="1" parent="WIyWlLk6GJQsqaUBKTNV-1">
          <mxGeometry x="120" y="130" width="120" height="60" as="geometry" />
        </mxCell>
        <mxCell id="zL5gAicnzv482tEoZBxc-21" value="第十二章&lt;div&gt;建设社会主义生态文明&lt;/div&gt;" style="rounded=0;whiteSpace=wrap;html=1;" vertex="1" parent="WIyWlLk6GJQsqaUBKTNV-1">
          <mxGeometry x="390" y="40" width="120" height="60" as="geometry" />
        </mxCell>
        <mxCell id="zL5gAicnzv482tEoZBxc-22" value="第十一章&lt;div&gt;以保障和改善民生为重点加强社会建设&lt;/div&gt;" style="rounded=0;whiteSpace=wrap;html=1;" vertex="1" parent="WIyWlLk6GJQsqaUBKTNV-1">
          <mxGeometry x="250" y="40" width="120" height="60" as="geometry" />
        </mxCell>
        <mxCell id="zL5gAicnzv482tEoZBxc-32" style="edgeStyle=orthogonalEdgeStyle;rounded=0;orthogonalLoop=1;jettySize=auto;html=1;exitX=0;exitY=0.25;exitDx=0;exitDy=0;entryX=0.993;entryY=0.38;entryDx=0;entryDy=0;entryPerimeter=0;curved=1;" edge="1" parent="WIyWlLk6GJQsqaUBKTNV-1" source="zL5gAicnzv482tEoZBxc-0" target="zL5gAicnzv482tEoZBxc-19">
          <mxGeometry relative="1" as="geometry" />
        </mxCell>
        <mxCell id="zL5gAicnzv482tEoZBxc-35" style="edgeStyle=orthogonalEdgeStyle;rounded=0;orthogonalLoop=1;jettySize=auto;html=1;exitX=0.25;exitY=0;exitDx=0;exitDy=0;entryX=0.607;entryY=1.007;entryDx=0;entryDy=0;entryPerimeter=0;curved=1;" edge="1" parent="WIyWlLk6GJQsqaUBKTNV-1" source="zL5gAicnzv482tEoZBxc-0" target="zL5gAicnzv482tEoZBxc-22">
          <mxGeometry relative="1" as="geometry" />
        </mxCell>
        <mxCell id="zL5gAicnzv482tEoZBxc-38" value="习近平新时代中国特色社会主义思想创立的时代背景" style="rounded=0;whiteSpace=wrap;html=1;" vertex="1" parent="WIyWlLk6GJQsqaUBKTNV-1">
          <mxGeometry x="750" y="-20" width="120" height="60" as="geometry" />
        </mxCell>
        <mxCell id="zL5gAicnzv482tEoZBxc-40" value="习近平新时代中国特色社会主义思想的立场观点方法" style="rounded=0;whiteSpace=wrap;html=1;" vertex="1" parent="WIyWlLk6GJQsqaUBKTNV-1">
          <mxGeometry x="880" width="120" height="60" as="geometry" />
        </mxCell>
        <mxCell id="zL5gAicnzv482tEoZBxc-42" value="习近平新时代中国特色社会主义思想的历史地位" style="rounded=0;whiteSpace=wrap;html=1;" vertex="1" parent="WIyWlLk6GJQsqaUBKTNV-1">
          <mxGeometry x="980" y="80" width="120" height="60" as="geometry" />
        </mxCell>
        <mxCell id="zL5gAicnzv482tEoZBxc-44" value="中国特色社会主义新时代的意义" style="rounded=0;whiteSpace=wrap;html=1;" vertex="1" parent="WIyWlLk6GJQsqaUBKTNV-1">
          <mxGeometry x="1040" y="170" width="120" height="60" as="geometry" />
        </mxCell>
      </root>
    </mxGraphModel>
  </diagram>
</mxfile>
